<svg xmlns="http://www.w3.org/2000/svg" width="3911" height="3435" fill="none" viewBox="0 0 3911 3435"><path fill="#6d4bff" d="M1370 2050c0 117.36-95.14 212.5-212.5 212.5S945 2167.36 945 2050s95.14-212.5 212.5-212.5S1370 1932.64 1370 2050M2968.17 453.21C3147.32 669.527 3255 947.187 3255 1250c0 690.36-559.64 1250-1250 1250-257.63 0-497.05-77.95-695.98-211.53 46.19-29.41 83.26-71.88 106.02-122.2 172.36 105.43 375.27 166.23 592.46 166.23 625.46 0 1132.5-504.24 1132.5-1126.25 0-258.72-87.73-497.06-235.2-687.219a206 206 0 0 0 63.37-65.821M2005 0c241.9 0 467.75 68.715 659.09 187.686-22.01 17.713-40.29 39.886-53.47 65.144C2435.99 143.348 2229.19 80 2007.5 80 1382.04 80 875 584.239 875 1206.25c0 214.88 60.515 415.7 165.52 586.54-45.055 20.52-83.768 52.53-112.402 92.28C818.122 1698.96 755 1481.85 755 1250 755 559.644 1314.64 0 2005 0M2937.5 347.5c0 80.081-64.92 145-145 145s-145-64.919-145-145 64.92-145 145-145 145 64.919 145 145"/><path fill="#6d4bff" fill-rule="evenodd" d="M2005 347.5c483.25 0 875 391.751 875 875s-391.75 875-875 875-875-391.75-875-875 391.75-875 875-875m60 235c-345.18 0-625 279.822-625 625 0 345.18 279.82 625 625 625s625-279.82 625-625c0-345.178-279.82-625-625-625" clip-rule="evenodd"/><path fill="#000" d="M508 3435H101L0 3302v-434l101-133h407l100 133v434zm7-535-53-71H147l-54 71v370l54 71h315l53-71zM1017.01 3089l-55.002-40h-116l-47 36v350h-91v-478h91v41l47-41h147l77.002 59zM1423.16 3435h-90l-183-209v-269h92v234l132 152h5l123-149v-237h91v270zM1684.59 2899v-95h81v95zm-1 536v-478h81v478zM2053.23 3050v385h-90v-385h-108v-93h108v-221h90v221h112v93z"/><path fill="#6d4bff" d="m2367.68 3435-107.8-146.3V2665h100.1v588.5l57.2 78.1h258.5V3435zM3175.09 3433.9v-30.8l-37.4 31.9h-273.9l-111.1-92.4v-341l111.1-91.3h273.9l37.4 31.9v-31.9h100.1v523.6zm0-359.7-59.4-63.8h-215.6l-46.2 38.5v247.5l46.2 37.4h221.1l53.9-50.6zM3799.26 3435h-264l-48.4-31.9v31.9h-101.2v-770h101.2v277.2l37.4-33h275l111.1 93.5v338.8zm11-383.9-47.3-38.5h-216.7l-59.4 63.8v203.5l53.9 51.7h222.2l47.3-39.6z"/></svg>