<svg xmlns="http://www.w3.org/2000/svg" width="1000" height="1000" fill="none" viewBox="0 0 1000 1000"><path fill="#6d4bff" d="M246 820c0 46.944-38.056 85-85 85s-85-38.056-85-85 38.056-85 85-85 85 38.056 85 85M885.269 181.284C956.929 267.811 1000 378.875 1000 500c0 276.142-223.858 500-500 500-103.052 0-198.821-31.178-278.394-84.613 18.478-11.765 33.307-28.749 42.409-48.878C332.959 908.678 414.123 933 501 933c250.185 0 453-201.696 453-450.5 0-103.488-35.09-198.824-94.081-274.888a82.4 82.4 0 0 0 25.35-26.328M500 0c96.759 0 187.098 27.486 263.638 75.074a82.35 82.35 0 0 0-21.389 26.058C672.398 57.339 589.675 32 501 32 250.815 32 48 233.696 48 482.5c0 85.952 24.206 166.281 66.206 234.615-18.02 8.209-33.505 21.013-44.959 36.914C25.25 679.583 0 592.74 0 500 0 223.858 223.858 0 500 0M873 139c0 32.033-25.967 58-58 58s-58-25.967-58-58 25.967-58 58-58 58 25.967 58 58"/><path fill="#6d4bff" fill-rule="evenodd" d="M500 139c193.3 0 350 156.7 350 350S693.3 839 500 839 150 682.3 150 489s156.7-350 350-350m24 94c-138.071 0-250 111.929-250 250s111.929 250 250 250 250-111.929 250-250-111.929-250-250-250" clip-rule="evenodd"/></svg>