<svg xmlns="http://www.w3.org/2000/svg" width="5104" height="1000" fill="none" viewBox="0 0 5104 1000"><path fill="#6d4bff" d="M246 820c0 46.944-38.056 85-85 85s-85-38.056-85-85 38.056-85 85-85 85 38.056 85 85M885.269 181.284C956.929 267.811 1000 378.875 1000 500c0 276.142-223.858 500-500 500-103.052 0-198.821-31.178-278.394-84.613 18.478-11.765 33.307-28.749 42.409-48.878C332.959 908.678 414.123 933 501 933c250.185 0 453-201.696 453-450.5 0-103.488-35.09-198.824-94.081-274.888a82.4 82.4 0 0 0 25.35-26.328M500 0c96.759 0 187.098 27.486 263.638 75.074a82.35 82.35 0 0 0-21.389 26.058C672.398 57.339 589.675 32 501 32 250.815 32 48 233.696 48 482.5c0 85.952 24.206 166.281 66.206 234.615-18.02 8.209-33.505 21.013-44.959 36.914C25.25 679.583 0 592.74 0 500 0 223.858 223.858 0 500 0M873 139c0 32.033-25.967 58-58 58s-58-25.967-58-58 25.967-58 58-58 58 25.967 58 58"/><path fill="#6d4bff" fill-rule="evenodd" d="M500 139c193.3 0 350 156.7 350 350S693.3 839 500 839 150 682.3 150 489s156.7-350 350-350m24 94c-138.071 0-250 111.929-250 250s111.929 250 250 250 250-111.929 250-250-111.929-250-250-250" clip-rule="evenodd"/><path fill="#000" d="M1701 914h-407l-101-133V347l101-133h407l100 133v434zm7-535-53-71h-315l-54 71v370l54 71h315l53-71zM2210.01 568l-55-40h-116l-47 36v350h-91V436h91v41l47-41h147l77 59zM2616.16 914h-90l-183-209V436h92v234l132 152h5l123-149V436h91v270zM2877.59 378v-95h81v95zm-1 536V436h81v478zM3246.23 529v385h-90V529h-108v-93h108V215h90v221h112v93z"/><path fill="#6d4bff" d="m3560.68 914-107.8-146.3V144h100.1v588.5l57.2 78.1h258.5V914zM4368.09 912.9v-30.8l-37.4 31.9h-273.9l-111.1-92.4v-341l111.1-91.3h273.9l37.4 31.9v-31.9h100.1v523.6zm0-359.7-59.4-63.8h-215.6l-46.2 38.5v247.5l46.2 37.4h221.1l53.9-50.6zM4992.26 914h-264l-48.4-31.9V914h-101.2V144h101.2v277.2l37.4-33h275l111.1 93.5v338.8zm11-383.9-47.3-38.5h-216.7l-59.4 63.8v203.5l53.9 51.7h222.2l47.3-39.6z"/></svg>