<svg xmlns="http://www.w3.org/2000/svg" width="3911" height="770" fill="none" viewBox="0 0 3911 770"><path fill="#000" d="M508 770H101L0 637V203L101 70h407l100 133v434zm7-535-53-71H147l-54 71v370l54 71h315l53-71zm502.01 189-55.002-40h-116l-47 36v350h-91V292h91v41l47-41h147l77.002 59zm406.15 346h-90l-183-209V292h92v234l132 152h5l123-149V292h91v270zm261.43-536v-95h81v95zm-1 536V292h81v478zm369.64-385v385h-90V385h-108v-93h108V71h90v221h112v93z"/><path fill="#6d4bff" d="m2367.68 770-107.8-146.3V0h100.1v588.5l57.2 78.1h258.5V770zm807.41-1.1v-30.8l-37.4 31.9h-273.9l-111.1-92.4v-341l111.1-91.3h273.9l37.4 31.9v-31.9h100.1v523.6zm0-359.7-59.4-63.8h-215.6l-46.2 38.5v247.5l46.2 37.4h221.1l53.9-50.6zM3799.26 770h-264l-48.4-31.9V770h-101.2V0h101.2v277.2l37.4-33h275l111.1 93.5v338.8zm11-383.9-47.3-38.5h-216.7l-59.4 63.8v203.5l53.9 51.7h222.2l47.3-39.6z"/></svg>